<?xml version="1.0" standalone="no"?>
<!DOCTYPE svg PUBLIC "-//W3C//DTD SVG 20010904//EN"
 "http://www.w3.org/TR/2001/REC-SVG-20010904/DTD/svg10.dtd">
<svg version="1.0" xmlns="http://www.w3.org/2000/svg"
 width="512.000000pt" height="512.000000pt" viewBox="0 0 512.000000 512.000000"
 preserveAspectRatio="xMidYMid meet">

<g transform="translate(0.000000,512.000000) scale(0.100000,-0.100000)"
fill="#000000" stroke="none">
<path d="M210 4480 l0 -210 215 -2 216 -3 384 -809 384 -810 -24 -40 c-130
-228 -287 -525 -299 -567 -31 -104 -15 -241 40 -335 31 -53 119 -136 173 -164
99 -50 83 -50 1464 -50 l1287 0 0 215 0 215 -1243 0 c-1223 0 -1244 0 -1262
20 -11 12 -15 28 -12 42 4 13 49 100 100 193 l94 170 849 5 c809 5 851 6 894
24 65 28 122 69 166 119 22 25 215 363 438 767 363 660 399 728 403 779 7 78
-32 153 -102 196 l-48 30 -1610 5 -1609 5 -97 205 -97 205 -352 3 -352 2 0
-210z"/>
<path d="M1390 1266 c-237 -64 -372 -307 -300 -537 37 -120 117 -211 236 -266
53 -25 70 -28 169 -28 105 0 114 2 179 34 264 130 326 464 125 676 -106 112
-267 160 -409 121z"/>
<path d="M3508 1261 c-81 -26 -136 -61 -192 -120 -194 -208 -128 -546 133
-674 62 -30 72 -32 177 -32 107 0 112 1 186 38 92 45 157 112 202 207 41 89
49 215 17 305 -43 122 -138 223 -253 267 -76 29 -197 33 -270 9z"/>
</g>
</svg>
