<?xml version="1.0" standalone="no"?>
<!DOCTYPE svg PUBLIC "-//W3C//DTD SVG 20010904//EN"
 "http://www.w3.org/TR/2001/REC-SVG-20010904/DTD/svg10.dtd">
<svg version="1.0" xmlns="http://www.w3.org/2000/svg"
 width="512.000000pt" height="512.000000pt" viewBox="0 0 512.000000 512.000000"
 preserveAspectRatio="xMidYMid meet">

<g transform="translate(0.000000,512.000000) scale(0.100000,-0.100000)"
fill="#000000" stroke="none">
<path d="M948 3970 c-248 -52 -456 -165 -619 -336 -159 -168 -256 -353 -306
-584 -16 -74 -18 -136 -18 -490 0 -440 4 -478 62 -650 111 -330 406 -619 739
-723 189 -60 110 -57 1754 -57 1644 0 1565 -3 1754 57 333 104 628 393 739
723 58 172 62 210 62 650 0 440 -4 478 -62 650 -111 330 -406 619 -739 723
-189 60 -108 57 -1763 56 -1432 0 -1521 -1 -1603 -19z m2518 -501 c246 -79
379 -348 294 -595 -48 -139 -172 -255 -315 -295 -65 -18 -186 -18 -250 0 -330
94 -449 504 -221 758 127 141 310 190 492 132z m-1794 -366 l3 -288 288 -3
287 -2 0 -250 0 -250 -287 -2 -288 -3 -3 -287 -2 -288 -255 0 -255 0 0 290 0
290 -285 0 -285 0 0 250 0 250 285 0 285 0 0 290 0 290 255 0 255 0 2 -287z
m2632 -459 c157 -41 289 -175 330 -335 74 -296 -146 -579 -449 -579 -127 0
-237 45 -328 134 -92 91 -137 199 -137 331 0 129 45 239 135 328 117 117 286
163 449 121z"/>
</g>
</svg>
